<svg width="64" height="64" viewBox="0 0 64 64" fill="none" xmlns="http://www.w3.org/2000/svg">
<path d="M23 15.6738C30.3178 15.6738 36.25 21.6061 36.25 28.9238V63.2207C34.8595 63.4038 33.4409 63.5 32 63.5C29.861 63.5 27.7715 63.2888 25.75 62.8916V28.9238C25.75 27.4051 24.5188 26.1738 23 26.1738H0.492188C1.16576 22.4015 2.51198 18.8601 4.40137 15.6738H23Z" fill="#15803D"/>
<path d="M56.8252 51.7822C52.8758 56.5945 47.5347 60.2365 41.4092 62.1035V51.7822H56.8252Z" fill="#030712"/>
<path d="M14.9004 31.5996C17.8546 31.5998 20.2496 33.9949 20.25 36.9492V61.291C16.3053 59.7451 12.746 57.4423 9.75 54.5654V42.0996H1.74023C0.613336 38.8555 1.1595e-05 35.3739 0 31.75C0 31.6999 0.00171924 31.6497 0.00195312 31.5996H14.9004Z" fill="#030712"/>
<path d="M63.5 37.3701C63.0662 39.7795 62.3567 42.094 61.4082 44.2822H41.4092V33.7822H63.5V37.3701Z" fill="#030712"/>
<path d="M59.6631 15.7822C61.5115 18.9279 62.8315 22.4167 63.5 26.1299V26.2822H41.2207C40.6371 22.2009 38.7219 18.5497 35.9287 15.7822H59.6631Z" fill="#15803D"/>
<path d="M32 0C40.3026 0 47.8666 3.13731 53.5537 8.28223H10.4473C16.1343 3.13757 23.6976 2.35445e-05 32 0Z" fill="#030712"/>
</svg>
